<svg width="37" height="37" viewBox="0 0 37 37" fill="none" xmlns="http://www.w3.org/2000/svg">
<g clip-path="url(#clip0_35_14)">
<path fill-rule="evenodd" clip-rule="evenodd" d="M36.556 1.13718e-07C33.4801 -0.000304937 30.4349 0.613125 27.599 1.80437C24.763 2.99561 22.1933 4.74072 20.0402 6.9375H15.6094C13.9228 6.9375 12.3053 7.6075 11.1127 8.80012C9.92005 9.99273 9.25005 11.6103 9.25005 13.2969V18.5H13.875L18.5 23.125V27.75H23.7032C25.3898 27.75 27.0073 27.08 28.1999 25.8874C29.3925 24.6948 30.0625 23.0772 30.0625 21.3906V16.9599C32.2594 14.8069 34.0046 12.2371 35.1959 9.40114C36.3871 6.56517 37.0005 3.52 37 0.444V1.13718e-07H36.556ZM14.8925 15.0312C15.4984 13.4062 16.2858 11.8547 17.2397 10.4062H15.6094C14.0138 10.4062 12.7188 11.7013 12.7188 13.2969V15.0312H14.8925ZM21.9688 24.2812V22.1075C23.5939 21.5016 25.1454 20.7142 26.5938 19.7603V21.3906C26.5938 22.9862 25.2988 24.2812 23.7032 24.2812H21.9688ZM33.2538 3.74625C29.6482 4.36168 26.2858 5.97071 23.5446 8.39244C20.8034 10.8142 18.7922 13.9526 17.7369 17.4548L19.5453 19.2654C23.0475 18.2102 26.1859 16.1989 28.6076 13.4577C31.0293 10.7165 32.6384 7.35413 33.2538 3.74856V3.74625ZM6.4288 23.7725C6.5992 23.6137 6.73587 23.4222 6.83067 23.2095C6.92546 22.9967 6.97643 22.7671 6.98054 22.5342C6.98465 22.3013 6.94181 22.07 6.85458 21.8541C6.76735 21.6381 6.63752 21.4419 6.47283 21.2772C6.30813 21.1125 6.11195 20.9827 5.89599 20.8955C5.68003 20.8082 5.44872 20.7654 5.21584 20.7695C4.98297 20.7736 4.7533 20.8246 4.54056 20.9194C4.32781 21.0142 4.13633 21.1509 3.97755 21.3213L0.5088 24.79C0.338399 24.9488 0.201725 25.1403 0.106931 25.353C0.0121376 25.5658 -0.0388342 25.7954 -0.042943 26.0283C-0.0470518 26.2612 -0.00421351 26.4925 0.0830163 26.7084C0.170246 26.9244 0.30008 27.1206 0.464774 27.2853C0.629467 27.45 0.825645 27.5798 1.04161 27.667C1.25757 27.7543 1.48888 27.7971 1.72176 27.793C1.95463 27.7889 2.1843 27.7379 2.39704 27.6431C2.60979 27.5483 2.80127 27.4116 2.96005 27.2412L6.4288 23.7725ZM13.3663 26.085C13.5367 25.9262 13.6734 25.7347 13.7682 25.522C13.863 25.3092 13.9139 25.0796 13.918 24.8467C13.9221 24.6138 13.8793 24.3825 13.7921 24.1666C13.7049 23.9506 13.575 23.7544 13.4103 23.5897C13.2456 23.425 13.0495 23.2952 12.8335 23.208C12.6175 23.1207 12.3862 23.0779 12.1533 23.082C11.9205 23.0861 11.6908 23.1371 11.4781 23.2319C11.2653 23.3267 11.0738 23.4634 10.915 23.6338L0.5088 34.04C0.338399 34.1988 0.201725 34.3903 0.106931 34.603C0.0121376 34.8158 -0.0388342 35.0454 -0.042943 35.2783C-0.0470518 35.5112 -0.00421351 35.7425 0.0830163 35.9584C0.170246 36.1744 0.30008 36.3706 0.464774 36.5353C0.629467 36.7 0.825645 36.8298 1.04161 36.917C1.25757 37.0043 1.48888 37.0471 1.72176 37.043C1.95463 37.0389 2.1843 36.9879 2.39704 36.8931C2.60979 36.7983 2.80127 36.6617 2.96005 36.4912L13.3663 26.085ZM15.6788 30.5713C16.0036 30.8964 16.186 31.3373 16.186 31.7969C16.186 32.2565 16.0036 32.6973 15.6788 33.0225L12.21 36.4912C11.8813 36.7976 11.4464 36.9644 10.9971 36.9565C10.5478 36.9485 10.1191 36.7665 9.8013 36.4487C9.48353 36.131 9.30151 35.7023 9.29358 35.253C9.28565 34.8036 9.45244 34.3688 9.7588 34.04L13.2275 30.5713C13.5527 30.2465 13.9936 30.064 14.4532 30.064C14.9128 30.064 15.3536 30.2465 15.6788 30.5713Z" fill="#D2DFE2"/>
</g>
<defs>
<clipPath id="clip0_35_14">
<rect width="37" height="37" fill="white"/>
</clipPath>
</defs>
</svg>
