<svg width="231" height="37" viewBox="0 0 231 37" fill="none" xmlns="http://www.w3.org/2000/svg">
<path d="M12.54 29.18C10.96 29.18 9.5 28.92 8.16 28.4C6.82 27.86 5.66 27.11 4.68 26.15C3.7 25.19 2.93 24.06 2.37 22.76C1.83 21.46 1.56 20.04 1.56 18.5C1.56 16.96 1.83 15.54 2.37 14.24C2.93 12.94 3.7 11.81 4.68 10.85C5.68 9.89 6.85 9.15 8.19 8.63C9.53 8.09 10.99 7.82 12.57 7.82C14.09 7.82 15.52 8.08 16.86 8.6C18.2 9.1 19.33 9.86 20.25 10.88L18.84 12.29C17.98 11.41 17.03 10.78 15.99 10.4C14.95 10 13.83 9.8 12.63 9.8C11.37 9.8 10.2 10.02 9.12 10.46C8.04 10.88 7.1 11.49 6.3 12.29C5.5 13.07 4.87 13.99 4.41 15.05C3.97 16.09 3.75 17.24 3.75 18.5C3.75 19.76 3.97 20.92 4.41 21.98C4.87 23.02 5.5 23.94 6.3 24.74C7.1 25.52 8.04 26.13 9.12 26.57C10.2 26.99 11.37 27.2 12.63 27.2C13.83 27.2 14.95 27 15.99 26.6C17.03 26.2 17.98 25.56 18.84 24.68L20.25 26.09C19.33 27.11 18.2 27.88 16.86 28.4C15.52 28.92 14.08 29.18 12.54 29.18ZM24.5325 29V13.25H26.5725V17.54L26.3625 16.79C26.8025 15.59 27.5425 14.68 28.5825 14.06C29.6225 13.42 30.9125 13.1 32.4525 13.1V15.17C32.3725 15.17 32.2925 15.17 32.2125 15.17C32.1325 15.15 32.0525 15.14 31.9725 15.14C30.3125 15.14 29.0125 15.65 28.0725 16.67C27.1325 17.67 26.6625 19.1 26.6625 20.96V29H24.5325ZM37.133 34.97C36.393 34.97 35.683 34.85 35.003 34.61C34.343 34.37 33.773 34.01 33.293 33.53L34.283 31.94C34.683 32.32 35.113 32.61 35.573 32.81C36.053 33.03 36.583 33.14 37.163 33.14C37.863 33.14 38.463 32.94 38.963 32.54C39.483 32.16 39.973 31.48 40.433 30.5L41.453 28.19L41.693 27.86L48.173 13.25H50.273L42.383 30.89C41.943 31.91 41.453 32.72 40.913 33.32C40.393 33.92 39.823 34.34 39.203 34.58C38.583 34.84 37.893 34.97 37.133 34.97ZM41.333 29.45L34.073 13.25H36.293L42.713 27.71L41.333 29.45ZM61.4027 29.15C60.0427 29.15 58.8127 28.84 57.7127 28.22C56.6127 27.58 55.7327 26.67 55.0727 25.49C54.4327 24.29 54.1127 22.83 54.1127 21.11C54.1127 19.39 54.4327 17.94 55.0727 16.76C55.7127 15.56 56.5827 14.65 57.6827 14.03C58.7827 13.41 60.0227 13.1 61.4027 13.1C62.9027 13.1 64.2427 13.44 65.4227 14.12C66.6227 14.78 67.5627 15.72 68.2427 16.94C68.9227 18.14 69.2627 19.53 69.2627 21.11C69.2627 22.71 68.9227 24.11 68.2427 25.31C67.5627 26.51 66.6227 27.45 65.4227 28.13C64.2427 28.81 62.9027 29.15 61.4027 29.15ZM53.2727 34.82V13.25H55.3127V17.99L55.1027 21.14L55.4027 24.32V34.82H53.2727ZM61.2527 27.26C62.3727 27.26 63.3727 27.01 64.2527 26.51C65.1327 25.99 65.8327 25.27 66.3527 24.35C66.8727 23.41 67.1327 22.33 67.1327 21.11C67.1327 19.89 66.8727 18.82 66.3527 17.9C65.8327 16.98 65.1327 16.26 64.2527 15.74C63.3727 15.22 62.3727 14.96 61.2527 14.96C60.1327 14.96 59.1227 15.22 58.2227 15.74C57.3427 16.26 56.6427 16.98 56.1227 17.9C55.6227 18.82 55.3727 19.89 55.3727 21.11C55.3727 22.33 55.6227 23.41 56.1227 24.35C56.6427 25.27 57.3427 25.99 58.2227 26.51C59.1227 27.01 60.1327 27.26 61.2527 27.26ZM78.5848 29.15C77.1048 29.15 75.9648 28.75 75.1648 27.95C74.3648 27.15 73.9648 26.02 73.9648 24.56V9.77H76.0948V24.44C76.0948 25.36 76.3248 26.07 76.7848 26.57C77.2648 27.07 77.9448 27.32 78.8248 27.32C79.7648 27.32 80.5448 27.05 81.1648 26.51L81.9148 28.04C81.4948 28.42 80.9848 28.7 80.3848 28.88C79.8048 29.06 79.2048 29.15 78.5848 29.15ZM71.1448 15.02V13.25H80.8948V15.02H71.1448ZM91.6556 29.15C90.1356 29.15 88.7656 28.81 87.5456 28.13C86.3456 27.43 85.3956 26.48 84.6956 25.28C83.9956 24.06 83.6456 22.67 83.6456 21.11C83.6456 19.53 83.9956 18.14 84.6956 16.94C85.3956 15.74 86.3456 14.8 87.5456 14.12C88.7456 13.44 90.1156 13.1 91.6556 13.1C93.2156 13.1 94.5956 13.44 95.7956 14.12C97.0156 14.8 97.9656 15.74 98.6456 16.94C99.3456 18.14 99.6956 19.53 99.6956 21.11C99.6956 22.67 99.3456 24.06 98.6456 25.28C97.9656 26.48 97.0156 27.43 95.7956 28.13C94.5756 28.81 93.1956 29.15 91.6556 29.15ZM91.6556 27.26C92.7956 27.26 93.8056 27.01 94.6856 26.51C95.5656 25.99 96.2556 25.27 96.7556 24.35C97.2756 23.41 97.5356 22.33 97.5356 21.11C97.5356 19.87 97.2756 18.79 96.7556 17.87C96.2556 16.95 95.5656 16.24 94.6856 15.74C93.8056 15.22 92.8056 14.96 91.6856 14.96C90.5656 14.96 89.5656 15.22 88.6856 15.74C87.8056 16.24 87.1056 16.95 86.5856 17.87C86.0656 18.79 85.8056 19.87 85.8056 21.11C85.8056 22.33 86.0656 23.41 86.5856 24.35C87.1056 25.27 87.8056 25.99 88.6856 26.51C89.5656 27.01 90.5556 27.26 91.6556 27.26Z" fill="#D2DFE2"/>
<path d="M101.944 29L106.144 8H116.284C118.564 8 120.304 8.41 121.504 9.23C122.724 10.05 123.334 11.24 123.334 12.8C123.334 14.12 122.984 15.23 122.284 16.13C121.604 17.03 120.694 17.71 119.554 18.17C118.414 18.63 117.174 18.86 115.834 18.86L116.614 17.66C118.374 17.66 119.774 18.07 120.814 18.89C121.874 19.69 122.404 20.85 122.404 22.37C122.404 23.85 121.994 25.09 121.174 26.09C120.374 27.07 119.264 27.8 117.844 28.28C116.424 28.76 114.794 29 112.954 29H101.944ZM107.524 25.34H113.254C114.594 25.34 115.644 25.09 116.404 24.59C117.184 24.07 117.574 23.31 117.574 22.31C117.574 21.53 117.284 20.98 116.704 20.66C116.144 20.32 115.384 20.15 114.424 20.15H108.004L108.724 16.61H114.184C115.024 16.61 115.744 16.5 116.344 16.28C116.964 16.06 117.434 15.73 117.754 15.29C118.074 14.83 118.234 14.28 118.234 13.64C118.234 12.94 117.964 12.44 117.424 12.14C116.884 11.82 116.124 11.66 115.144 11.66H110.224L107.524 25.34ZM133.014 29.24C131.374 29.24 129.944 28.94 128.724 28.34C127.504 27.74 126.554 26.9 125.874 25.82C125.214 24.74 124.884 23.47 124.884 22.01C124.884 20.21 125.304 18.61 126.144 17.21C126.984 15.79 128.134 14.67 129.594 13.85C131.074 13.03 132.754 12.62 134.634 12.62C136.294 12.62 137.724 12.92 138.924 13.52C140.144 14.12 141.084 14.96 141.744 16.04C142.424 17.1 142.764 18.37 142.764 19.85C142.764 21.63 142.344 23.23 141.504 24.65C140.664 26.07 139.514 27.19 138.054 28.01C136.594 28.83 134.914 29.24 133.014 29.24ZM133.314 25.4C134.234 25.4 135.044 25.18 135.744 24.74C136.464 24.28 137.024 23.65 137.424 22.85C137.824 22.05 138.024 21.12 138.024 20.06C138.024 18.98 137.704 18.11 137.064 17.45C136.424 16.79 135.524 16.46 134.364 16.46C133.444 16.46 132.624 16.69 131.904 17.15C131.204 17.59 130.644 18.21 130.224 19.01C129.824 19.81 129.624 20.74 129.624 21.8C129.624 22.9 129.944 23.78 130.584 24.44C131.224 25.08 132.134 25.4 133.314 25.4ZM152.643 29.24C151.003 29.24 149.573 28.94 148.353 28.34C147.133 27.74 146.183 26.9 145.503 25.82C144.843 24.74 144.513 23.47 144.513 22.01C144.513 20.21 144.933 18.61 145.773 17.21C146.613 15.79 147.763 14.67 149.223 13.85C150.703 13.03 152.383 12.62 154.263 12.62C155.923 12.62 157.353 12.92 158.553 13.52C159.773 14.12 160.713 14.96 161.373 16.04C162.053 17.1 162.393 18.37 162.393 19.85C162.393 21.63 161.973 23.23 161.133 24.65C160.293 26.07 159.143 27.19 157.683 28.01C156.223 28.83 154.543 29.24 152.643 29.24ZM152.943 25.4C153.863 25.4 154.673 25.18 155.373 24.74C156.093 24.28 156.653 23.65 157.053 22.85C157.453 22.05 157.653 21.12 157.653 20.06C157.653 18.98 157.333 18.11 156.693 17.45C156.053 16.79 155.153 16.46 153.993 16.46C153.073 16.46 152.253 16.69 151.533 17.15C150.833 17.59 150.273 18.21 149.853 19.01C149.453 19.81 149.253 20.74 149.253 21.8C149.253 22.9 149.573 23.78 150.213 24.44C150.853 25.08 151.763 25.4 152.943 25.4ZM169.721 29.24C168.301 29.24 166.961 29.08 165.701 28.76C164.461 28.44 163.501 28.04 162.821 27.56L164.621 24.17C165.321 24.63 166.171 25 167.171 25.28C168.191 25.56 169.211 25.7 170.231 25.7C171.331 25.7 172.131 25.56 172.631 25.28C173.131 25 173.381 24.62 173.381 24.14C173.381 23.76 173.171 23.48 172.751 23.3C172.331 23.1 171.801 22.94 171.161 22.82C170.521 22.7 169.831 22.56 169.091 22.4C168.371 22.24 167.681 22.02 167.021 21.74C166.381 21.44 165.851 21.02 165.431 20.48C165.031 19.92 164.831 19.19 164.831 18.29C164.831 17.07 165.171 16.04 165.851 15.2C166.551 14.36 167.511 13.72 168.731 13.28C169.971 12.84 171.371 12.62 172.931 12.62C174.051 12.62 175.141 12.74 176.201 12.98C177.261 13.22 178.161 13.55 178.901 13.97L177.221 17.39C176.461 16.91 175.661 16.59 174.821 16.43C174.001 16.25 173.211 16.16 172.451 16.16C171.351 16.16 170.551 16.32 170.051 16.64C169.571 16.94 169.331 17.31 169.331 17.75C169.331 18.13 169.531 18.43 169.931 18.65C170.351 18.85 170.881 19.02 171.521 19.16C172.161 19.28 172.851 19.42 173.591 19.58C174.331 19.72 175.021 19.94 175.661 20.24C176.301 20.52 176.821 20.93 177.221 21.47C177.641 21.99 177.851 22.7 177.851 23.6C177.851 24.82 177.491 25.86 176.771 26.72C176.071 27.56 175.111 28.19 173.891 28.61C172.671 29.03 171.281 29.24 169.721 29.24ZM186.349 29.24C185.189 29.24 184.199 29.01 183.379 28.55C182.559 28.07 181.969 27.39 181.609 26.51C181.269 25.61 181.219 24.55 181.459 23.33L184.249 9.29H188.929L186.139 23.3C186.019 23.98 186.089 24.52 186.349 24.92C186.609 25.32 187.089 25.52 187.789 25.52C188.109 25.52 188.429 25.47 188.749 25.37C189.089 25.27 189.399 25.13 189.679 24.95L190.369 28.28C189.789 28.64 189.149 28.89 188.449 29.03C187.749 29.17 187.049 29.24 186.349 29.24ZM180.259 16.82L180.979 13.22H192.169L191.449 16.82H180.259Z" fill="#127AF5"/>
<g clip-path="url(#clip0_35_12)">
<path fill-rule="evenodd" clip-rule="evenodd" d="M230.556 1.13718e-07C227.48 -0.000304937 224.435 0.613125 221.599 1.80437C218.763 2.99561 216.193 4.74072 214.04 6.9375H209.609C207.923 6.9375 206.305 7.6075 205.113 8.80012C203.92 9.99273 203.25 11.6103 203.25 13.2969V18.5H207.875L212.5 23.125V27.75H217.703C219.39 27.75 221.007 27.08 222.2 25.8874C223.393 24.6948 224.063 23.0772 224.063 21.3906V16.9599C226.259 14.8069 228.005 12.2371 229.196 9.40114C230.387 6.56517 231 3.52 231 0.444V1.13718e-07H230.556ZM208.893 15.0312C209.498 13.4062 210.286 11.8547 211.24 10.4062H209.609C208.014 10.4062 206.719 11.7013 206.719 13.2969V15.0312H208.893ZM215.969 24.2812V22.1075C217.594 21.5016 219.145 20.7142 220.594 19.7603V21.3906C220.594 22.9862 219.299 24.2812 217.703 24.2812H215.969ZM227.254 3.74625C223.648 4.36168 220.286 5.97071 217.545 8.39244C214.803 10.8142 212.792 13.9526 211.737 17.4547L213.545 19.2654C217.047 18.2102 220.186 16.1989 222.608 13.4577C225.029 10.7165 226.638 7.35413 227.254 3.74856V3.74625ZM200.429 23.7725C200.599 23.6137 200.736 23.4222 200.831 23.2095C200.925 22.9967 200.976 22.7671 200.981 22.5342C200.985 22.3013 200.942 22.07 200.855 21.8541C200.767 21.6381 200.638 21.4419 200.473 21.2772C200.308 21.1125 200.112 20.9827 199.896 20.8955C199.68 20.8082 199.449 20.7654 199.216 20.7695C198.983 20.7736 198.753 20.8246 198.541 20.9194C198.328 21.0142 198.136 21.1508 197.978 21.3213L194.509 24.79C194.338 24.9488 194.202 25.1403 194.107 25.353C194.012 25.5658 193.961 25.7954 193.957 26.0283C193.953 26.2612 193.996 26.4925 194.083 26.7084C194.17 26.9244 194.3 27.1206 194.465 27.2853C194.629 27.45 194.826 27.5798 195.042 27.667C195.258 27.7543 195.489 27.7971 195.722 27.793C195.955 27.7889 196.184 27.7379 196.397 27.6431C196.61 27.5483 196.801 27.4117 196.96 27.2412L200.429 23.7725ZM207.366 26.085C207.537 25.9262 207.673 25.7347 207.768 25.522C207.863 25.3092 207.914 25.0796 207.918 24.8467C207.922 24.6138 207.879 24.3825 207.792 24.1666C207.705 23.9506 207.575 23.7544 207.41 23.5897C207.246 23.425 207.049 23.2952 206.833 23.208C206.618 23.1207 206.386 23.0779 206.153 23.082C205.92 23.0861 205.691 23.1371 205.478 23.2319C205.265 23.3267 205.074 23.4633 204.915 23.6338L194.509 34.04C194.338 34.1988 194.202 34.3903 194.107 34.603C194.012 34.8158 193.961 35.0454 193.957 35.2783C193.953 35.5112 193.996 35.7425 194.083 35.9584C194.17 36.1744 194.3 36.3706 194.465 36.5353C194.629 36.7 194.826 36.8298 195.042 36.917C195.258 37.0043 195.489 37.0471 195.722 37.043C195.955 37.0389 196.184 36.9879 196.397 36.8931C196.61 36.7983 196.801 36.6617 196.96 36.4912L207.366 26.085ZM209.679 30.5713C210.004 30.8964 210.186 31.3373 210.186 31.7969C210.186 32.2565 210.004 32.6973 209.679 33.0225L206.21 36.4912C205.881 36.7976 205.446 36.9644 204.997 36.9565C204.548 36.9485 204.119 36.7665 203.801 36.4487C203.484 36.131 203.302 35.7023 203.294 35.253C203.286 34.8036 203.452 34.3688 203.759 34.04L207.228 30.5713C207.553 30.2465 207.994 30.064 208.453 30.064C208.913 30.064 209.354 30.2465 209.679 30.5713Z" fill="#D2DFE2"/>
</g>
<defs>
<clipPath id="clip0_35_12">
<rect width="37" height="37" fill="white" transform="translate(194)"/>
</clipPath>
</defs>
</svg>
