<svg width="114" height="114" viewBox="0 0 114 114" fill="none" xmlns="http://www.w3.org/2000/svg">
<path d="M30.5889 52.3153L29.5706 54.2962L31.7275 53.7409C34.872 52.9315 38.1906 53.1218 41.222 54.2854C44.2534 55.449 46.8469 57.528 48.6422 60.2336C50.4375 62.9392 51.3452 66.1369 51.2394 69.3822C51.1335 72.6275 50.0192 75.7591 48.0514 78.3419C46.0836 80.9247 43.36 82.8303 40.2592 83.7939C37.1584 84.7574 33.8345 84.7309 30.7495 83.7182C27.6644 82.7055 24.9715 80.7569 23.045 78.1431C21.1185 75.5294 20.0541 72.3803 19.9999 69.1338L19.9991 69.0901L19.9946 69.0467C19.4031 63.3757 20.2084 57.6461 22.3405 52.3579L22.3405 52.3579L22.3426 52.3525C25.1017 45.3925 30.5194 37.7354 40.5 30.25C40.894 29.9545 41.3423 29.7395 41.8193 29.6173C42.2964 29.4951 42.7928 29.468 43.2803 29.5377C43.7678 29.6073 44.2369 29.7723 44.6606 30.0232C45.0843 30.2741 45.4545 30.606 45.75 31C46.0455 31.394 46.2605 31.8423 46.3827 32.3193C46.5049 32.7964 46.5319 33.2928 46.4623 33.7803C46.3927 34.2678 46.2277 34.7369 45.9768 35.1606C45.7259 35.5843 45.394 35.9545 45 36.25C37.4663 41.9002 33.099 47.4324 30.5889 52.3153ZM73.3389 52.3153L72.3206 54.2962L74.4775 53.7409C77.622 52.9315 80.9406 53.1218 83.972 54.2854C87.0034 55.449 89.5969 57.528 91.3922 60.2336C93.1875 62.9392 94.0953 66.1369 93.9894 69.3822C93.8835 72.6274 92.7692 75.7591 90.8014 78.3419C88.8336 80.9247 86.11 82.8303 83.0092 83.7939C79.9084 84.7574 76.5845 84.7309 73.4995 83.7182C70.4144 82.7055 67.7215 80.7569 65.795 78.1431C63.8685 75.5294 62.8041 72.3803 62.7499 69.1338L62.7491 69.0902L62.7446 69.0468C62.1533 63.3757 62.9586 57.6461 65.0905 52.3579L65.0924 52.353C67.8564 45.3923 73.2697 37.7352 83.25 30.25C83.644 29.9545 84.0923 29.7395 84.5693 29.6173C85.0464 29.4951 85.5428 29.468 86.0303 29.5377C86.5178 29.6073 86.9868 29.7723 87.4106 30.0232C87.8343 30.2741 88.2045 30.606 88.5 31C88.7955 31.394 89.0105 31.8423 89.1327 32.3193C89.2549 32.7964 89.282 33.2928 89.2123 33.7803C89.1427 34.2678 88.9777 34.7368 88.7268 35.1606C88.4759 35.5844 88.144 35.9545 87.75 36.25C80.2163 41.9002 75.849 47.4324 73.3389 52.3153ZM35.625 60.75H35.6248C33.6127 60.7504 31.6724 61.4973 30.1794 62.8462C28.6864 64.1951 27.747 66.0499 27.5431 68.0517L27.5405 68.0776L27.5392 68.1037L27.5012 68.8732L27.4998 68.9012L27.5 68.9292C27.5107 70.5338 27.9963 72.0993 28.8956 73.4283C29.7948 74.7573 31.0675 75.7903 32.5531 76.397C34.0386 77.0036 35.6706 77.1568 37.2431 76.8372C38.8156 76.5176 40.2582 75.7395 41.3891 74.6011C42.52 73.4627 43.2885 72.0149 43.5976 70.4403C43.9068 68.8657 43.7427 67.2348 43.1262 65.7533C42.5097 64.2718 41.4683 63.0061 40.1333 62.1156C38.7984 61.2252 37.2297 60.75 35.625 60.75ZM78.375 60.75H78.3748C76.3627 60.7504 74.4224 61.4973 72.9294 62.8462C71.4364 64.1951 70.497 66.0499 70.2931 68.0517L70.2905 68.0776L70.2892 68.1037L70.2512 68.8732L70.2498 68.9011L70.25 68.9292C70.2607 70.5338 70.7463 72.0993 71.6456 73.4283C72.5448 74.7573 73.8175 75.7903 75.3031 76.397C76.7886 77.0036 78.4206 77.1568 79.9931 76.8372C81.5656 76.5176 83.0082 75.7395 84.1391 74.6011C85.27 73.4627 86.0385 72.0149 86.3476 70.4403C86.6568 68.8657 86.4927 67.2348 85.8762 65.7533C85.2597 64.2718 84.2183 63.0061 82.8833 62.1156C81.5484 61.2252 79.9797 60.75 78.375 60.75Z" stroke="#127AF5" stroke-width="2"/>
</svg>
