<svg width="114" height="114" viewBox="0 0 114 114" fill="none" xmlns="http://www.w3.org/2000/svg">
<path fill-rule="evenodd" clip-rule="evenodd" d="M46.55 30.4C46.9243 30.899 47.1966 31.4669 47.3514 32.0711C47.5062 32.6754 47.5405 33.3042 47.4523 33.9218C47.364 34.5393 47.1551 35.1333 46.8372 35.6701C46.5194 36.2068 46.099 36.6757 45.6 37.05C38.171 42.6218 33.9102 48.0415 31.4782 52.7725C34.824 51.9112 38.355 52.1137 41.5803 53.3518C44.8057 54.5898 47.5653 56.802 49.4754 59.6807C51.3856 62.5595 52.3515 65.9618 52.2388 69.4148C52.1262 72.8678 50.9406 76.1999 48.8468 78.948C46.7531 81.6961 43.8552 83.7236 40.556 84.7488C37.2567 85.774 33.7201 85.7459 30.4376 84.6684C27.1551 83.5909 24.2898 81.5175 22.24 78.7364C20.1902 75.9554 19.0577 72.6048 19 69.1505C18.3915 63.3172 19.22 57.4235 21.413 51.984C24.2487 44.8305 29.792 37.031 39.9 29.45C40.399 29.0757 40.9669 28.8034 41.5711 28.6486C42.1754 28.4938 42.8042 28.4595 43.4217 28.5477C44.0393 28.636 44.6333 28.8449 45.1701 29.1627C45.7068 29.4806 46.1757 29.901 46.55 30.4ZM82.65 29.45C83.149 29.0757 83.7169 28.8034 84.3211 28.6486C84.9254 28.4938 85.5542 28.4595 86.1717 28.5477C86.7893 28.636 87.3833 28.8449 87.9201 29.1627C88.4568 29.4806 88.9257 29.901 89.3 30.4C89.6743 30.899 89.9466 31.4669 90.1014 32.0711C90.2562 32.6754 90.2905 33.3042 90.2023 33.9218C90.114 34.5393 89.9051 35.1333 89.5872 35.6701C89.2694 36.2068 88.849 36.6757 88.35 37.05C80.921 42.6218 76.6602 48.0415 74.2282 52.7725C77.574 51.9112 81.105 52.1137 84.3303 53.3518C87.5557 54.5898 90.3153 56.802 92.2254 59.6807C94.1356 62.5595 95.1015 65.9618 94.9888 69.4148C94.8762 72.8678 93.6906 76.1999 91.5968 78.948C89.5031 81.6961 86.6052 83.7236 83.306 84.7488C80.0067 85.774 76.4701 85.7459 73.1876 84.6684C69.9051 83.5909 67.0398 81.5175 64.99 78.7364C62.9402 75.9554 61.8077 72.6048 61.75 69.1505C61.1417 63.3172 61.9702 57.4236 64.163 51.984C67.0035 44.8305 72.542 37.031 82.65 29.45ZM35.625 61.75C33.8606 61.7503 32.159 62.4053 30.8498 63.5882C29.5405 64.7711 28.7168 66.3976 28.538 68.153L28.5 68.9225C28.5094 70.3296 28.9352 71.7025 29.7238 72.8679C30.5124 74.0333 31.6284 74.9392 32.9311 75.4712C34.2338 76.0032 35.6649 76.1375 37.0439 75.8573C38.4229 75.577 39.688 74.8947 40.6797 73.8964C41.6714 72.8981 42.3453 71.6284 42.6164 70.2476C42.8875 68.8668 42.7436 67.4367 42.203 66.1375C41.6623 64.8384 40.7491 63.7284 39.5785 62.9476C38.4078 62.1667 37.0322 61.75 35.625 61.75ZM78.375 61.75C76.6106 61.7503 74.909 62.4053 73.5998 63.5882C72.2905 64.7711 71.4668 66.3976 71.288 68.153L71.25 68.9225C71.2594 70.3296 71.6852 71.7025 72.4738 72.8679C73.2624 74.0333 74.3784 74.9392 75.6811 75.4712C76.9838 76.0032 78.4149 76.1375 79.7939 75.8573C81.1729 75.577 82.438 74.8947 83.4297 73.8964C84.4214 72.8981 85.0953 71.6284 85.3664 70.2476C85.6375 68.8668 85.4936 67.4367 84.953 66.1375C84.4123 64.8384 83.4991 63.7284 82.3284 62.9476C81.1578 62.1667 79.7822 61.75 78.375 61.75Z" fill="#127AF5"/>
</svg>
