<svg width="114" height="114" viewBox="0 0 114 114" fill="none" xmlns="http://www.w3.org/2000/svg">
<path fill-rule="evenodd" clip-rule="evenodd" d="M67.45 83.6C67.0757 83.101 66.8034 82.5331 66.6486 81.9289C66.4938 81.3246 66.4595 80.6958 66.5477 80.0782C66.636 79.4607 66.8449 78.8666 67.1628 78.3299C67.4806 77.7932 67.901 77.3243 68.4 76.95C75.829 71.3782 80.0898 65.9585 82.5218 61.2275C79.176 62.0888 75.645 61.8863 72.4197 60.6482C69.1943 59.4102 66.4347 57.198 64.5246 54.3193C62.6144 51.4405 61.6485 48.0382 61.7612 44.5852C61.8738 41.1322 63.0594 37.8001 65.1532 35.052C67.2469 32.3039 70.1448 30.2764 73.4441 29.2512C76.7433 28.226 80.2799 28.2541 83.5624 29.3316C86.8449 30.4091 89.7102 32.4825 91.76 35.2636C93.8098 38.0446 94.9423 41.3952 95 44.8495C95.6085 50.6828 94.78 56.5765 92.587 62.016C89.7513 69.1695 84.208 76.969 74.1 84.55C73.601 84.9243 73.0331 85.1966 72.4289 85.3514C71.8246 85.5062 71.1958 85.5405 70.5783 85.4523C69.9607 85.364 69.3667 85.1551 68.8299 84.8373C68.2932 84.5194 67.8243 84.099 67.45 83.6ZM31.35 84.55C30.851 84.9243 30.2831 85.1966 29.6789 85.3514C29.0746 85.5062 28.4458 85.5405 27.8283 85.4523C27.2107 85.364 26.6167 85.1551 26.0799 84.8372C25.5432 84.5194 25.0743 84.099 24.7 83.6C24.3257 83.101 24.0534 82.5331 23.8986 81.9289C23.7438 81.3246 23.7095 80.6958 23.7977 80.0782C23.886 79.4607 24.0949 78.8666 24.4128 78.3299C24.7306 77.7932 25.151 77.3243 25.65 76.95C33.079 71.3782 37.3398 65.9585 39.7718 61.2275C36.426 62.0887 32.895 61.8863 29.6697 60.6482C26.4443 59.4102 23.6847 57.198 21.7746 54.3193C19.8644 51.4405 18.8985 48.0382 19.0112 44.5852C19.1238 41.1322 20.3094 37.8001 22.4032 35.052C24.4969 32.3039 27.3948 30.2764 30.694 29.2512C33.9933 28.226 37.5299 28.2541 40.8124 29.3316C44.0949 30.4091 46.9602 32.4825 49.01 35.2636C51.0598 38.0446 52.1923 41.3952 52.25 44.8495C52.8583 50.6828 52.0298 56.5764 49.837 62.016C46.9965 69.1695 41.458 76.969 31.35 84.55ZM78.375 52.25C80.1394 52.2497 81.841 51.5947 83.1502 50.4118C84.4595 49.2289 85.2832 47.6024 85.462 45.847L85.5 45.0775C85.4906 43.6704 85.0648 42.2975 84.2762 41.1321C83.4876 39.9667 82.3716 39.0608 81.0689 38.5288C79.7662 37.9968 78.3351 37.8625 76.9561 38.1427C75.5771 38.423 74.312 39.1053 73.3203 40.1036C72.3286 41.1019 71.6547 42.3716 71.3836 43.7524C71.1125 45.1332 71.2564 46.5633 71.797 47.8625C72.3377 49.1616 73.2509 50.2716 74.4216 51.0524C75.5922 51.8333 76.9678 52.25 78.375 52.25ZM35.625 52.25C37.3894 52.2497 39.091 51.5947 40.4002 50.4118C41.7095 49.2289 42.5332 47.6024 42.712 45.847L42.75 45.0775C42.7406 43.6704 42.3148 42.2975 41.5262 41.1321C40.7376 39.9667 39.6216 39.0608 38.3189 38.5288C37.0162 37.9968 35.5851 37.8625 34.2061 38.1427C32.8271 38.423 31.562 39.1053 30.5703 40.1036C29.5786 41.1019 28.9047 42.3716 28.6336 43.7524C28.3625 45.1332 28.5064 46.5633 29.047 47.8625C29.5877 49.1616 30.5009 50.2716 31.6716 51.0524C32.8422 51.8333 34.2178 52.25 35.625 52.25Z" fill="#127AF5"/>
</svg>
